<svg width="21" height="20" viewBox="0 0 21 20" fill="none" xmlns="http://www.w3.org/2000/svg">
<g clip-path="url(#clip0_1340_321)">
<path d="M7.57441 16.8751H4.08301C3.91725 16.8751 3.75828 16.8093 3.64107 16.692C3.52386 16.5748 3.45801 16.4159 3.45801 16.2501V12.7587C3.45808 12.5932 3.52383 12.4344 3.64082 12.3173L13.2752 2.68291C13.3924 2.56579 13.5513 2.5 13.717 2.5C13.8827 2.5 14.0416 2.56579 14.1588 2.68291L17.6502 6.17198C17.7673 6.28917 17.8331 6.44808 17.8331 6.61377C17.8331 6.77946 17.7673 6.93837 17.6502 7.05557L8.01582 16.6923C7.8987 16.8093 7.73995 16.875 7.57441 16.8751Z" stroke="#383A42" stroke-width="1.5" stroke-linecap="round" stroke-linejoin="round"/>
<path d="M10.958 5L15.333 9.375" stroke="#383A42" stroke-width="1.5" stroke-linecap="round" stroke-linejoin="round"/>
</g>
<defs>
<clipPath id="clip0_1340_321">
<rect width="20" height="20" fill="white" transform="translate(0.333008)"/>
</clipPath>
</defs>
</svg>
