 
<svg width="24" height="24" viewBox="0 0 24 24" fill="none" xmlns="http://www.w3.org/2000/svg">
<path d="M9.875 13.5H6.125C5.77982 13.5 5.5 13.7798 5.5 14.125V17.875C5.5 18.2202 5.77982 18.5 6.125 18.5H9.875C10.2202 18.5 10.5 18.2202 10.5 17.875V14.125C10.5 13.7798 10.2202 13.5 9.875 13.5Z" stroke="#1C1D21" stroke-linecap="round" stroke-linejoin="round"/>
<path d="M17.875 13.5H14.125C13.7798 13.5 13.5 13.7798 13.5 14.125V17.875C13.5 18.2202 13.7798 18.5 14.125 18.5H17.875C18.2202 18.5 18.5 18.2202 18.5 17.875V14.125C18.5 13.7798 18.2202 13.5 17.875 13.5Z" stroke="#1C1D21" stroke-linecap="round" stroke-linejoin="round"/>
<path d="M9.875 5.5H6.125C5.77982 5.5 5.5 5.77982 5.5 6.125V9.875C5.5 10.2202 5.77982 10.5 6.125 10.5H9.875C10.2202 10.5 10.5 10.2202 10.5 9.875V6.125C10.5 5.77982 10.2202 5.5 9.875 5.5Z" stroke="#1C1D21" stroke-linecap="round" stroke-linejoin="round"/>
<path d="M17.875 5.5H14.125C13.7798 5.5 13.5 5.77982 13.5 6.125V9.875C13.5 10.2202 13.7798 10.5 14.125 10.5H17.875C18.2202 10.5 18.5 10.2202 18.5 9.875V6.125C18.5 5.77982 18.2202 5.5 17.875 5.5Z" stroke="#1C1D21" stroke-linecap="round" stroke-linejoin="round"/>
</svg>
