 <svg width="18" height="16" viewBox="0 0 18 16" fill="none" xmlns="http://www.w3.org/2000/svg">
<path d="M1.66391 1.79531C1.58258 1.70581 1.52896 1.59464 1.50956 1.47527C1.49016 1.35591 1.5058 1.23348 1.5546 1.12283C1.60339 1.01218 1.68323 0.918057 1.78445 0.85188C1.88567 0.785704 2.00391 0.750314 2.12484 0.75H15.8748C15.9959 0.750012 16.1144 0.785184 16.2158 0.851243C16.3173 0.917302 16.3974 1.0114 16.4463 1.12212C16.4953 1.23283 16.5111 1.35538 16.4917 1.47489C16.4724 1.5944 16.4188 1.70571 16.3373 1.79531L10.8748 7.625V12.207C10.8749 12.31 10.8496 12.4113 10.801 12.5021C10.7525 12.5928 10.6823 12.6702 10.5967 12.7273L8.09672 14.3937C8.00268 14.4565 7.89339 14.4926 7.78048 14.4981C7.66757 14.5036 7.55527 14.4784 7.45554 14.4252C7.35581 14.372 7.27239 14.2927 7.21415 14.1958C7.15592 14.0989 7.12505 13.988 7.12484 13.875V7.625L1.66391 1.79531Z" stroke="#383A42" stroke-width="1.5" stroke-linecap="round" stroke-linejoin="round"/>
</svg>

