<svg width="20" height="20" viewBox="0 0 20 20" fill="none" xmlns="http://www.w3.org/2000/svg">
<g clip-path="url(#clip0_857_1431)">
<path d="M10 10L17.5 2.5" stroke="#185357" stroke-width="1.5" stroke-linecap="round" stroke-linejoin="round"/>
<path d="M15.3025 4.69699C13.9741 3.37169 12.1967 2.59326 10.3218 2.51569C8.44692 2.43811 6.61123 3.06705 5.17786 4.27808C3.74449 5.48911 2.81786 7.19402 2.58128 9.05551C2.3447 10.917 2.8154 12.7995 3.90028 14.3306C4.98515 15.8617 6.60516 16.9298 8.43983 17.3237C10.2745 17.7175 12.1902 17.4085 13.8079 16.4576C15.4256 15.5067 16.6275 13.9833 17.1758 12.1887C17.7241 10.3942 17.5789 8.45917 16.769 6.76652" stroke="#185357" stroke-width="1.5" stroke-linecap="round" stroke-linejoin="round"/>
<path d="M12.652 7.3487C12.0317 6.72912 11.2138 6.34648 10.3407 6.26729C9.4675 6.1881 8.59418 6.41736 7.8725 6.91522C7.15082 7.41309 6.6264 8.14809 6.39038 8.99248C6.15437 9.83687 6.22167 10.7373 6.58061 11.5372C6.93955 12.3371 7.56742 12.986 8.3551 13.371C9.14278 13.756 10.0405 13.8529 10.8922 13.6448C11.7439 13.4366 12.4957 12.9367 13.017 12.2317C13.5383 11.5268 13.7962 10.6615 13.7457 9.7862" stroke="#185357" stroke-width="1.5" stroke-linecap="round" stroke-linejoin="round"/>
</g>
<defs>
<clipPath id="clip0_857_1431">
<rect width="20" height="20" fill="white"/>
</clipPath>
</defs>
</svg>
