<svg width="25" height="24" viewBox="0 0 25 24" fill="none" xmlns="http://www.w3.org/2000/svg">
<g clip-path="url(#clip0_1340_311)">
<path d="M20.583 5.25H4.08301" stroke="#1C1D21" stroke-width="1.5" stroke-linecap="round" stroke-linejoin="round"/>
<path d="M10.083 9.75V15.75" stroke="#1C1D21" stroke-width="1.5" stroke-linecap="round" stroke-linejoin="round"/>
<path d="M14.583 9.75V15.75" stroke="#1C1D21" stroke-width="1.5" stroke-linecap="round" stroke-linejoin="round"/>
<path d="M19.083 5.25V19.5C19.083 19.6989 19.004 19.8897 18.8633 20.0303C18.7227 20.171 18.5319 20.25 18.333 20.25H6.33301C6.1341 20.25 5.94333 20.171 5.80268 20.0303C5.66203 19.8897 5.58301 19.6989 5.58301 19.5V5.25" stroke="#1C1D21" stroke-width="1.5" stroke-linecap="round" stroke-linejoin="round"/>
<path d="M16.083 5.25V3.75C16.083 3.35218 15.925 2.97064 15.6437 2.68934C15.3624 2.40804 14.9808 2.25 14.583 2.25H10.083C9.68518 2.25 9.30365 2.40804 9.02235 2.68934C8.74104 2.97064 8.58301 3.35218 8.58301 3.75V5.25" stroke="#1C1D21" stroke-width="1.5" stroke-linecap="round" stroke-linejoin="round"/>
</g>
<defs>
<clipPath id="clip0_1340_311">
<rect width="24" height="24" fill="white" transform="translate(0.333008)"/>
</clipPath>
</defs>
</svg>

