<svg width="24" height="24" viewBox="0 0 24 24" fill="none" xmlns="http://www.w3.org/2000/svg">
<path d="M5.875 13.5H2.125C1.77982 13.5 1.5 13.7798 1.5 14.125V17.875C1.5 18.2202 1.77982 18.5 2.125 18.5H5.875C6.22018 18.5 6.5 18.2202 6.5 17.875V14.125C6.5 13.7798 6.22018 13.5 5.875 13.5Z" stroke="#1C1D21" stroke-linecap="round" stroke-linejoin="round"/>
<path d="M13.875 13.5H10.125C9.77982 13.5 9.5 13.7798 9.5 14.125V17.875C9.5 18.2202 9.77982 18.5 10.125 18.5H13.875C14.2202 18.5 14.5 18.2202 14.5 17.875V14.125C14.5 13.7798 14.2202 13.5 13.875 13.5Z" stroke="#1C1D21" stroke-linecap="round" stroke-linejoin="round"/>
<path d="M21.875 13.5H18.125C17.7798 13.5 17.5 13.7798 17.5 14.125V17.875C17.5 18.2202 17.7798 18.5 18.125 18.5H21.875C22.2202 18.5 22.5 18.2202 22.5 17.875V14.125C22.5 13.7798 22.2202 13.5 21.875 13.5Z" stroke="#1C1D21" stroke-linecap="round" stroke-linejoin="round"/>
<path d="M9.875 5.5H6.125C5.77982 5.5 5.5 5.77982 5.5 6.125V9.875C5.5 10.2202 5.77982 10.5 6.125 10.5H9.875C10.2202 10.5 10.5 10.2202 10.5 9.875V6.125C10.5 5.77982 10.2202 5.5 9.875 5.5Z" stroke="#1C1D21" stroke-linecap="round" stroke-linejoin="round"/>
<path d="M17.875 5.5H14.125C13.7798 5.5 13.5 5.77982 13.5 6.125V9.875C13.5 10.2202 13.7798 10.5 14.125 10.5H17.875C18.2202 10.5 18.5 10.2202 18.5 9.875V6.125C18.5 5.77982 18.2202 5.5 17.875 5.5Z" stroke="#1C1D21" stroke-linecap="round" stroke-linejoin="round"/>
</svg>
