 <svg width="20" height="20" viewBox="0 0 20 20" fill="none" xmlns="http://www.w3.org/2000/svg">
<g clip-path="url(#clip0_857_1523)">
<path d="M10 6.25V10L13.125 11.875" stroke="#C56E1D" stroke-width="1.5" stroke-linecap="round" stroke-linejoin="round"/>
<path d="M5.625 8.125H2.5V5" stroke="#C56E1D" stroke-width="1.5" stroke-linecap="round" stroke-linejoin="round"/>
<path d="M5.28125 14.9998C6.26404 15.9272 7.49832 16.5444 8.82987 16.7743C10.1614 17.0042 11.5312 16.8366 12.768 16.2925C14.0049 15.7483 15.054 14.8518 15.7842 13.7148C16.5144 12.5779 16.8934 11.251 16.8739 9.89986C16.8543 8.54875 16.437 7.23336 15.6741 6.11806C14.9112 5.00276 13.8366 4.137 12.5845 3.62896C11.3324 3.12091 9.9583 2.9931 8.63397 3.26151C7.30964 3.52991 6.09377 4.18263 5.13828 5.13809C4.21875 6.06934 3.45937 6.94747 2.5 8.12481" stroke="#C56E1D" stroke-width="1.5" stroke-linecap="round" stroke-linejoin="round"/>
</g>
<defs>
<clipPath id="clip0_857_1523">
<rect width="20" height="20" fill="white"/>
</clipPath>
</defs>
</svg>
