<svg width="21" height="20" viewBox="0 0 21 20" fill="none" xmlns="http://www.w3.org/2000/svg">
<g clip-path="url(#clip0_1189_3447)">
<path d="M16.916 3.125H4.41602C4.07084 3.125 3.79102 3.40482 3.79102 3.75V16.25C3.79102 16.5952 4.07084 16.875 4.41602 16.875H16.916C17.2612 16.875 17.541 16.5952 17.541 16.25V3.75C17.541 3.40482 17.2612 3.125 16.916 3.125Z" stroke="#1C1D21" stroke-width="1.5" stroke-linecap="round" stroke-linejoin="round"/>
<path d="M14.416 1.875V4.375" stroke="#1C1D21" stroke-width="1.5" stroke-linecap="round" stroke-linejoin="round"/>
<path d="M6.91602 1.875V4.375" stroke="#1C1D21" stroke-width="1.5" stroke-linecap="round" stroke-linejoin="round"/>
<path d="M3.79102 6.875H17.541" stroke="#1C1D21" stroke-width="1.5" stroke-linecap="round" stroke-linejoin="round"/>
<path d="M10.666 11.25C11.1838 11.25 11.6035 10.8303 11.6035 10.3125C11.6035 9.79473 11.1838 9.375 10.666 9.375C10.1482 9.375 9.72852 9.79473 9.72852 10.3125C9.72852 10.8303 10.1482 11.25 10.666 11.25Z" fill="#1C1D21"/>
<path d="M14.1035 11.25C14.6213 11.25 15.041 10.8303 15.041 10.3125C15.041 9.79473 14.6213 9.375 14.1035 9.375C13.5857 9.375 13.166 9.79473 13.166 10.3125C13.166 10.8303 13.5857 11.25 14.1035 11.25Z" fill="#1C1D21"/>
<path d="M7.22852 14.375C7.74628 14.375 8.16602 13.9553 8.16602 13.4375C8.16602 12.9197 7.74628 12.5 7.22852 12.5C6.71075 12.5 6.29102 12.9197 6.29102 13.4375C6.29102 13.9553 6.71075 14.375 7.22852 14.375Z" fill="#1C1D21"/>
<path d="M10.666 14.375C11.1838 14.375 11.6035 13.9553 11.6035 13.4375C11.6035 12.9197 11.1838 12.5 10.666 12.5C10.1482 12.5 9.72852 12.9197 9.72852 13.4375C9.72852 13.9553 10.1482 14.375 10.666 14.375Z" fill="#1C1D21"/>
<path d="M14.1035 14.375C14.6213 14.375 15.041 13.9553 15.041 13.4375C15.041 12.9197 14.6213 12.5 14.1035 12.5C13.5857 12.5 13.166 12.9197 13.166 13.4375C13.166 13.9553 13.5857 14.375 14.1035 14.375Z" fill="#1C1D21"/>
</g>
<defs>
<clipPath id="clip0_1189_3447">
<rect width="20" height="20" fill="white" transform="translate(0.666016)"/>
</clipPath>
</defs>
</svg>

