<svg width="60" height="94" viewBox="0 0 60 94" fill="none" xmlns="http://www.w3.org/2000/svg">
<rect x="60" y="10" width="84" height="60" rx="4" transform="rotate(90 60 10)" fill="#D8DADF"/>
<rect x="56" y="14" width="76" height="52" rx="2" transform="rotate(90 56 14)" fill="white"/>
<path d="M56 90H40L56 74V90Z" fill="#D9D9D9"/>
<path d="M40 74L56 74L40 90L40 74Z" fill="#8E94A2"/>
<path d="M56 90H44L56 78V90Z" fill="#D9D9D9"/>
<rect x="16" y="38" width="28" height="28" rx="4" fill="#60B688" fill-opacity="0.16"/>
<path fill-rule="evenodd" clip-rule="evenodd" d="M39.3107 46.1268C39.8964 46.7126 39.8964 47.6624 39.3107 48.2482L28.3107 59.2482C27.7249 59.8339 26.7751 59.8339 26.1893 59.2482L21.3768 54.4357C20.7911 53.8499 20.7911 52.9001 21.3768 52.3143C21.9626 51.7286 22.9124 51.7286 23.4982 52.3143L27.25 56.0662L37.1893 46.1268C37.7751 45.5411 38.7249 45.5411 39.3107 46.1268Z" fill="#60B688"/>
<path d="M37 7C37 3.13401 33.866 0 30 0C26.134 0 23 3.13401 23 7H12C10.8954 7 10 7.89543 10 9V18C10 19.1046 10.8954 20 12 20H48C49.1046 20 50 19.1046 50 18V9C50 7.89543 49.1046 7 48 7H37Z" fill="#8E94A2"/>
</svg>
