<svg width="100" height="75" viewBox="0 0 100 75" fill="none" xmlns="http://www.w3.org/2000/svg">
<rect x="0.524292" y="0.00976562" width="98.9515" height="61.9806" rx="6" fill="#D8DADF"/>
<path d="M64 73H36" stroke="#D8DADF" stroke-width="3" stroke-linecap="square" stroke-linejoin="round"/>
<path d="M50 61.9902L50 72.864" stroke="#D8DADF" stroke-width="3" stroke-linecap="round" stroke-linejoin="round"/>
<path d="M41.8447 34.8058C41.8447 42.6129 35.5159 48.9418 27.7088 48.9418C19.9017 48.9418 13.5729 42.6129 13.5729 34.8058C13.5729 26.9988 19.9017 20.6699 27.7088 20.6699C35.5159 20.6699 41.8447 26.9988 41.8447 34.8058ZM17.8137 34.8058C17.8137 40.2708 22.2439 44.701 27.7088 44.701C33.1737 44.701 37.6039 40.2708 37.6039 34.8058C37.6039 29.3409 33.1737 24.9107 27.7088 24.9107C22.2439 24.9107 17.8137 29.3409 17.8137 34.8058Z" fill="#F7F8F8"/>
<path d="M41.8447 34.8058C41.8447 36.6996 41.4642 38.574 40.7258 40.3178C39.9874 42.0617 38.9061 43.6394 37.5462 44.9572C36.1862 46.2751 34.5754 47.3063 32.8092 47.9896C31.043 48.6728 29.1576 48.9943 27.2648 48.9348L27.398 44.6961C28.7229 44.7377 30.0428 44.5127 31.2791 44.0344C32.5154 43.5561 33.643 42.8343 34.595 41.9118C35.5469 40.9893 36.3038 39.8849 36.8207 38.6642C37.3376 37.4436 37.6039 36.1315 37.6039 34.8058H41.8447Z" fill="#4A4E5A"/>
<rect x="13.5729" y="8.70874" width="28.8155" height="3.26214" fill="#F7F7F8"/>
<rect x="55.9806" y="48.9419" width="23.9223" height="4.34952" transform="rotate(-90 55.9806 48.9419)" fill="#8E94A2"/>
<rect x="64.6797" y="48.9419" width="11.4175" height="4.34951" transform="rotate(-90 64.6797 48.9419)" fill="#8E94A2"/>
<rect x="73.3787" y="48.9419" width="40.233" height="4.34952" transform="rotate(-90 73.3787 48.9419)" fill="#8E94A2"/>
<rect x="82.0776" y="48.9419" width="18.4854" height="4.34952" transform="rotate(-90 82.0776 48.9419)" fill="#8E94A2"/>
</svg>
